<?xml version="1.0" encoding="utf-8"?>
<svg viewBox="69.268 137.721 353.472 64.665" width="353.472" height="64.665" xmlns="http://www.w3.org/2000/svg">
  <defs>
    <clipPath id="a">
      <rect class="a" width="135" height="26" transform="translate(30 19)" style="fill: rgb(125, 64, 231); stroke: rgb(112, 112, 112);"/>
    </clipPath>
  </defs>
  <g class="b" transform="matrix(2.861978, 0, 0, 2.861978, -19.00379, 78.470909)" style="clip-path: url(#a);">
    <g transform="translate(30.828 20.558)">
      <g transform="translate(-33.133 -36.275)">
        <g transform="translate(33.133 36.275)">
          <text class="c" transform="translate(39.328 17.913)" style="white-space: pre; fill: rgb(125, 64, 231); font-family: Helvetica-BoldOblique, Helvetica; font-size: 17px; font-style: italic; font-weight: 700; letter-spacing: 0.561px; line-height: 27.2px; perspective-origin: 42.1719px 2px;"><tspan x="0" y="0">FRETECH</tspan></text>
          <path class="d" d="M32.952,15.415H10.581a.666.666,0,0,0,0,1.332H32.952a.666.666,0,0,0,0-1.332Z" style="fill: rgb(125, 64, 231);"/>
          <path class="d" d="M34.639,11.623H13.954a.641.641,0,0,0,0,1.281H34.639a.641.641,0,0,0,0-1.281Z" style="fill: rgb(125, 64, 231);"/>
          <path class="d" d="M30.555,7.869H8.184a.666.666,0,0,0,0,1.331H30.555a.666.666,0,0,0,0-1.331Z" style="fill: rgb(125, 64, 231);"/>
          <path class="d" d="M9.781,22.739a5.866,5.866,0,0,1-5.859-5.859,3.062,3.062,0,0,1,.043-.5,5.86,5.86,0,0,1,1.91-11.4c.186,0,.373.008.558.026A5.733,5.733,0,0,1,12.178.145a5.877,5.877,0,0,1,5.74,4.679.755.755,0,1,1-1.48.3,4.36,4.36,0,0,0-4.261-3.471,4.243,4.243,0,0,0-4.3,4.272.755.755,0,0,1-1.035.7l-.149-.059A4.351,4.351,0,0,0,5.03,15.111a.754.754,0,0,1,.549,1.037l-.064.15c-.008.045-.017.089-.026.133a2.345,2.345,0,0,0-.059.448,4.351,4.351,0,0,0,8.375,1.653.755.755,0,1,1,1.4.574A5.837,5.837,0,0,1,9.781,22.739Z" style="fill: rgb(125, 64, 231);"/>
        </g>
      </g>
    </g>
  </g>
</svg>