<svg width="265" height="186" xmlns="http://www.w3.org/2000/svg">

 <g>
  <title>Layer 1</title>
  <svg y="-87.12277" x="-47.30764" id="svg_2" viewBox="0 0 650 512" data-name="Layer 1" height="360" width="360" xmlns="http://www.w3.org/2000/svg">
   <circle id="svg_3" class="colordbe8ec svgShape" fill="#e3dbec" r="167.695" cy="256" cx="337.969"/>
   <path id="svg_4" class="colordbe8ec svgShape" d="m564.58343,220.90338l0,-18.10968a13.02087,13.02087 0 0 0 -13.02086,-13.02087l-45.95924,0a13.02086,13.02086 0 0 1 -13.02086,-13.02083l0,-18.10971a13.02087,13.02087 0 0 1 13.02086,-13.02087l1.45112,0a13.02087,13.02087 0 0 0 13.02086,-13.02087l0,-18.10968a13.02087,13.02087 0 0 0 -13.02086,-13.02087l-333.91922,0a13.02087,13.02087 0 0 0 -13.02087,13.02087l0,18.10968a13.02087,13.02087 0 0 0 13.02087,13.02087l0,0a13.02087,13.02087 0 0 1 13.02086,13.02087l0,18.10971a13.02086,13.02086 0 0 1 -13.02086,13.02086l-50.35283,0a13.02087,13.02087 0 0 0 -13.02087,13.02087l0,18.10968a13.02087,13.02087 0 0 0 13.02087,13.02087l19.75769,0a13.02087,13.02087 0 0 1 13.02091,13.02084l0,18.10976a13.02087,13.02087 0 0 1 -13.02086,13.02087l-0.04775,0a13.02087,13.02087 0 0 0 -13.02087,13.02087l0,18.10959a13.02087,13.02087 0 0 0 13.02087,13.02087l2.85852,0a13.02087,13.02087 0 0 1 13.02082,13.02092l0,18.10976a13.02087,13.02087 0 0 1 -13.02087,13.02087l-46.91343,0a13.02087,13.02087 0 0 0 -13.02086,13.02087l0,18.10968a13.02087,13.02087 0 0 0 13.02086,13.02082l415.60757,0a13.02087,13.02087 0 0 0 13.02087,-13.02087l0,-18.10968a13.02087,13.02087 0 0 0 -13.02087,-13.02087l-11.28974,0a13.02087,13.02087 0 0 1 -13.02087,-13.02087l0,-18.10971a13.02087,13.02087 0 0 1 13.02087,-13.02087l26.62008,0a13.02087,13.02087 0 0 0 13.02087,-13.02087l0,-18.10964a13.02087,13.02087 0 0 0 -13.02087,-13.02087l-8.07529,0a13.02087,13.02087 0 0 1 -13.02087,-13.02087l0,-18.10976a13.02087,13.02087 0 0 1 13.02087,-13.02087l30.26252,0a13.02087,13.02087 0 0 0 13.02086,-13.02087z" fill="#e3dbec"/>
   <line id="svg_5" class="colorStrokeb9d4db svgStroke" stroke-width="3" stroke-miterlimit="10" stroke-linecap="round" stroke="#cab9db" fill="none" y2="92.159" y1="92.159" x2="417.077" x1="384.775"/>
   <line id="svg_6" class="colorStrokeb9d4db svgStroke" stroke-width="3" stroke-miterlimit="10" stroke-linecap="round" stroke="#cab9db" fill="none" y2="101.47" y1="101.47" x2="417.077" x1="384.775"/>
   <line id="svg_7" class="colorStrokeb9d4db svgStroke" stroke-width="3" stroke-miterlimit="10" stroke-linecap="round" stroke="#cab9db" fill="none" y2="110.781" y1="110.781" x2="417.077" x1="384.775"/>
   <line id="svg_8" class="colorStrokeb9d4db svgStroke" stroke-width="3" stroke-miterlimit="10" stroke-linecap="round" stroke="#cab9db" fill="none" y2="289.908" y1="289.908" x2="151.456" x1="119.153"/>
   <line id="svg_9" class="colorStrokeb9d4db svgStroke" stroke-width="3" stroke-miterlimit="10" stroke-linecap="round" stroke="#cab9db" fill="none" y2="299.218" y1="299.218" x2="151.456" x1="119.153"/>
   <line id="svg_10" class="colorStrokeb9d4db svgStroke" stroke-width="3" stroke-miterlimit="10" stroke-linecap="round" stroke="#cab9db" fill="none" y2="308.529" y1="308.529" x2="151.456" x1="119.153"/>
   <line id="svg_11" class="colorStrokeb9d4db svgStroke" stroke-width="3" stroke-miterlimit="10" stroke-linecap="round" stroke="#cab9db" fill="none" y2="375.236" y1="375.236" x2="537.966" x1="505.663"/>
   <line id="svg_12" class="colorStrokeb9d4db svgStroke" stroke-width="3" stroke-miterlimit="10" stroke-linecap="round" stroke="#cab9db" fill="none" y2="384.546" y1="384.546" x2="537.966" x1="505.663"/>
   <line id="svg_13" class="colorStrokeb9d4db svgStroke" stroke-width="3" stroke-miterlimit="10" stroke-linecap="round" stroke="#cab9db" fill="none" y2="393.857" y1="393.857" x2="537.966" x1="505.663"/>
   <circle id="svg_14" class="colorb9d4db svgShape" fill="#cab9db" r="13.807" cy="202.347" cx="546.78"/>
   <circle id="svg_15" class="colorb9d4db svgShape" fill="#cab9db" r="7.159" cy="212.312" cx="510.344"/>
   <circle id="svg_16" class="colorb9d4db svgShape" fill="#cab9db" r="10.228" cy="168.562" cx="528.523"/>
   <circle id="svg_17" class="colorb9d4db svgShape" fill="#cab9db" r="16.428" cy="389.402" cx="164.38"/>
   <circle id="svg_18" class="colorb9d4db svgShape" fill="#cab9db" r="8.557" cy="397.598" cx="131.897"/>
   <circle id="svg_19" class="colorb9d4db svgShape" fill="#cab9db" r="4.936" cy="369.192" cx="121.847"/>
   <circle id="svg_20" class="colorb9d4db svgShape" fill="#cab9db" r="11.833" cy="356.549" cx="146.321"/>
   <circle id="svg_21" class="colorb9d4db svgShape" fill="#cab9db" r="16.428" cy="135.463" cx="250.43"/>
   <circle id="svg_22" class="colorb9d4db svgShape" fill="#cab9db" r="8.557" cy="101.968" cx="251.096"/>
   <circle id="svg_23" class="colorb9d4db svgShape" fill="#cab9db" r="7.406" cy="106.968" cx="308.091"/>
   <circle id="svg_24" class="colorb9d4db svgShape" fill="#cab9db" r="4.936" cy="99.771" cx="281.147"/>
   <circle id="svg_25" class="colorb9d4db svgShape" fill="#cab9db" r="11.833" cy="126.713" cx="286.883"/>
   <polygon id="svg_26" class="colore06714 svgShape" points="483.963 291.561 374.753 350.388 374.753 216.949 483.963 182.855 483.963 291.561" fill="#7a14e0"/>
   <path id="svg_27" class="colorf9ae2b svgShape" d="m374.7531,216.94926l-128.92075,-13.042l-26.42178,-38.98094a3,3 0 0 1 2.4833,-4.68321l121.44484,0a3,3 0 0 1 2.65955,1.61192l28.75484,55.09423z" fill="#922bf9"/>
   <path id="svg_28" class="colorf9ae2b svgShape" d="m245.83235,337.34632l-45.02413,-9.36832a3,3 0 0 1 -2.38887,-2.93709l0,-127.31058a3,3 0 0 1 3.61113,-2.93709l43.80187,9.114l0,133.43908zm172.38613,27.5124l-43.46538,-14.47037l0,-133.43909l45.36062,15.10133a3,3 0 0 1 2.05238,2.84641l0,127.11531a3,3 0 0 1 -3.94762,2.84641z" fill="#922bf9"/>
   <polygon id="svg_29" class="color409cb5 svgShape" points="374.753 350.388 245.832 337.346 245.832 203.907 374.753 216.949 374.753 350.388" fill="#7a40b5"/>
   <path id="svg_30" class="colorf9ae2b svgShape" d="m341.97,386.09125l-131.54367,-5.24868l35.406,-43.49625l128.92075,13.042l-30.40766,34.683a3,3 0 0 1 -2.37542,1.01993z" fill="#922bf9"/>
   <polygon id="svg_31" class="coloree781d svgShape" points="374.753 216.949 483.963 182.855 350.473 170.429 374.753 216.949" fill="#851dee"/>
   <polygon id="svg_32" class="color25788e svgShape" points="245.832 337.346 374.753 277.148 374.753 216.949 245.832 203.907 245.832 337.346" fill="#59258e"/>
   <path id="svg_33" class="colordbe8ec svgShape" d="m253.56224,293.86279s14.0847,-6.16206 17.826,-1.76059s12.104,6.38213 12.104,6.38213l7.26242,-12.32411l19.80661,9.24308l10.7836,14.74492l-7.04235,17.3858s-14.30477,-0.22007 -21.127,2.64088s-24.64822,3.081 -24.64822,3.081l-8.14272,-15.62521s-10.34351,-15.18504 -6.82234,-23.7679z" fill="#e3dbec"/>
   <path id="svg_34" class="colorbad5db svgShape" d="m283.49223,298.48431c1.35456,1.20007 2.65566,2.445 3.93082,3.71143c1.286,1.25744 2.52385,2.555 3.76631,3.84887c1.21591,1.316 2.46431,2.60486 3.64342,3.95166c1.18951,1.338 2.40047,2.65821 3.5498,4.02991l-2.53526,1.254c-0.575,-2.39258 -1.14255,-4.78687 -1.65111,-7.19458c-0.51942,-2.40515 -0.96371,-4.82727 -1.42943,-7.24463c-0.84754,-4.85364 -1.638,-9.72009 -2.01213,-14.68079c1.79647,4.639 3.17659,9.3722 4.49964,14.11829c0.61958,2.38257 1.26059,4.76025 1.82646,7.15491c0.57672,2.39221 1.0945,4.79785 1.60478,7.20508l0.0044,0.02075a1.45451,1.45451 0 0 1 -2.53975,1.2334c-1.14635,-1.37427 -2.2311,-2.79993 -3.33728,-4.20764c-1.11658,-1.399 -2.16387,-2.85608 -3.24366,-4.28589c-1.05322,-1.452 -2.111,-2.90027 -3.12075,-4.38868c-1.02049,-1.47934 -2.01513,-2.98031 -2.95626,-4.52609z" fill="#cabadb"/>
   <path id="svg_35" class="colorbad5db svgShape" d="m310.56126,295.40326c-0.84011,1.81176 -1.78526,3.55212 -2.72747,5.29443c-0.9668,1.72559 -1.9399,3.4469 -2.96647,5.13184c-0.99682,1.7052 -2.06942,3.35888 -3.11573,5.03039c-1.05454,1.6659 -2.16841,3.29151 -3.2497,4.93933l-1.52806,-2.30468c2.00444,-0.4115 4.0164,-0.78516 6.03165,-1.14246c2.02347,-0.31616 4.03494,-0.69226 6.06828,-0.95911c2.02654,-0.30078 4.06415,-0.546 6.10492,-0.77563c2.04791,-0.19385 4.09282,-0.40271 6.16618,-0.46912c-1.93969,0.73535 -3.90785,1.32837 -5.873,1.9364c-1.97229,0.57239 -3.94773,1.12891 -5.93424,1.63c-1.97972,0.535 -3.9813,0.96069 -5.97087,1.44653c-1.99782,0.44446 -3.9989,0.87268 -6.00752,1.26306l-0.03152,0.00623a1.484,1.484 0 0 1 -1.49662,-2.311c1.13451,-1.61157 2.23642,-3.24524 3.39769,-4.83862c1.16947,-1.58789 2.31267,-3.19348 3.53163,-4.74768c1.18924,-1.57434 2.43193,-3.11243 3.68093,-4.64612c1.27359,-1.51712 2.54424,-3.03616 3.91992,-4.48379z" fill="#cabadb"/>
   <path id="svg_36" class="colorbad5db svgShape" d="m314.30251,327.534c-1.62475,-0.77 -3.16161,-1.65905 -4.70708,-2.53649c-1.52558,-0.90442 -3.03768,-1.827 -4.519,-2.79151c-2.98088,-1.90393 -5.86587,-3.93786 -8.69781,-6.04358l2.16636,-0.428c-1.71183,2.7898 -3.486,5.54187 -5.38934,8.2157c-0.93138,1.34925 -1.92,2.6637 -2.91315,3.97559c-1.01684,1.29736 -2.03357,2.59485 -3.15448,3.82922c0.5755,-1.56494 1.25516,-3.06665 1.9347,-4.56848c0.70329,-1.48743 1.411,-2.97217 2.176,-4.42224c1.48944,-2.92456 3.108,-5.771 4.789,-8.57959a1.4876,1.4876 0 0 1 2.04048,-0.51245l0.1133,0.075l0.01284,0.00952c2.84673,2.08569 5.6404,4.24329 8.33817,6.53088c1.358,1.13135 2.68527,2.30445 3.999,3.49585c1.29396,1.21823 2.59642,2.42489 3.81101,3.75058z" fill="#cabadb"/>
   <path id="svg_37" class="colorbad5db svgShape" d="m253.56224,293.86273c7.6031,2.8551 15.01918,6.09766 22.40817,9.39624c3.67754,1.68445 7.36335,3.35181 11.00716,5.1062c3.66327,1.714 7.29237,3.49878 10.91981,5.287l0.01108,0.00549a1.45144,1.45144 0 0 1 0.13747,2.52637c-2.39525,1.52417 -4.8407,2.96948 -7.26143,4.45373c-2.41635,1.491 -4.88512,2.89978 -7.32512,4.35364c-2.464,1.41626 -4.91716,2.84949 -7.4102,4.22q-3.7221,2.08338 -7.52194,4.04456q3.38175,-2.61786 6.84762,-5.10364c2.29682,-1.67883 4.63346,-3.29517 6.95935,-4.92822c2.34986,-1.59546 4.671,-3.23621 7.04444,-4.79456c2.36912,-1.56531 4.71353,-3.16931 7.10815,-4.69446l0.14851,2.53162c-3.65657,-1.72791 -7.31149,-3.45923 -10.93223,-5.26123c-3.6402,-1.76184 -7.23842,-3.6106 -10.8449,-5.44226c-7.17904,-3.73368 -14.33099,-7.52336 -21.29594,-11.70048z" fill="#cabadb"/>
   <path id="svg_38" class="colorbad5db svgShape" d="m259.48534,316.22491a43.29962,43.29962 0 0 0 7.38432,-3.62451a14.86708,14.86708 0 0 0 5.2729,-5.28943a12.24264,12.24264 0 0 0 1.143,-7.2229a42.46343,42.46343 0 0 0 -1.8974,-7.98584a18.61237,18.61237 0 0 1 4.21374,7.5398a12.25,12.25 0 0 1 -0.81392,9.08166a13.85452,13.85452 0 0 1 -6.821,5.95569a18.88134,18.88134 0 0 1 -8.48164,1.54553zm22.49299,-8.64526a33.23523,33.23523 0 0 1 -1.05427,6.06726a56.0831,56.0831 0 0 1 -1.84972,5.764a55.10811,55.10811 0 0 1 -2.45172,5.53467a32.83451,32.83451 0 0 1 -3.25476,5.22863a32.82892,32.82892 0 0 1 1.05047,-6.06872a55.09358,55.09358 0 0 1 1.85352,-5.76258a56.065,56.065 0 0 1 2.45552,-5.5332a33.23322,33.23322 0 0 1 3.25096,-5.23006z" fill="#cabadb"/>
   <path id="svg_39" class="colorc0d8dd svgShape" d="m252.83119,366.41465s-10.72928,11.01055 -15.85215,8.34108s-13.61613,-1.35658 -13.61613,-1.35658l-2.08928,14.15138l-21.8291,-1.10774l-15.54069,-9.60132l-0.01991,-18.75794s13.33551,-5.18066 18.5791,-10.39921s21.67562,-12.13241 21.67562,-12.13241l13.4254,11.41094s15.29861,10.17478 15.26714,19.4518z" fill="#cec0dd"/>
   <path id="svg_40" class="color9fc6cc svgShape" d="m223.36291,373.39911c-3.32586,-1.36841 -6.57566,-2.88 -9.81163,-4.41761c-1.608,-0.78772 -3.2292,-1.55041 -4.82216,-2.36621c-1.59721,-0.808 -3.20315,-1.59936 -4.784,-2.43811l1.25115,-1.41076c2.86248,4.00329 5.6272,8.0747 8.33829,12.18335c2.67887,4.13122 5.32571,8.28466 7.739,12.6007c-3.21111,-3.76049 -6.18869,-7.68359 -9.13426,-11.629c-2.91333,-3.9679 -5.77305,-7.97315 -8.535,-12.04651l-0.00719,-0.0105a0.96977,0.96977 0 0 1 1.2584,-1.40027c1.5796,0.84106 3.13408,1.72925 4.6973,2.6012c1.56746,0.86377 3.10666,1.78088 4.65912,2.673c3.08494,1.82185 6.15599,3.66975 9.15098,5.66072z" fill="#b59fcc"/>
   <path id="svg_41" class="color9fc6cc svgShape" d="m199.44453,386.44281c0.42849,-3.93885 1.0458,-7.83728 1.72633,-11.72217c0.66993,-3.88709 1.44936,-7.75073 2.25562,-11.60864l1.52211,1.03991l-5.14669,3.34609c-1.73979,1.07849 -3.45707,2.19129 -5.21533,3.24182c-1.74554,1.06983 -3.51181,2.10828 -5.284,3.13782c-1.78553,1.00928 -3.5656,2.02674 -5.39875,2.96387c1.5829,-1.31641 3.2189,-2.55237 4.84943,-3.79663c1.64389,-1.22388 3.29367,-2.439 4.9642,-3.62256c1.6578,-1.20288 3.35657,-2.34363 5.03284,-3.51843l5.1015,-3.41455a0.99324,0.99324 0 0 1 1.52223,1.04c-0.84564,3.84948 -1.71813,7.69323 -2.70011,11.51342c-0.97135,3.82253 -2.00591,7.63149 -3.22938,11.40005z" fill="#b59fcc"/>
   <path id="svg_42" class="color9fc6cc svgShape" d="m183.88393,358.08355c1.76662,0.21338 3.50887,0.52222 5.25348,0.8219c1.73909,0.32117 3.47444,0.65711 5.20124,1.02649c3.45707,0.7251 6.8891,1.54847 10.30727,2.426l-1.22664,0.8053c0.28153,-1.61231 0.53048,-3.22986 0.83875,-4.83789c0.305,-1.60865 0.59732,-3.21924 0.943,-4.82129c0.66589,-3.20813 1.39248,-6.40662 2.307,-9.575c-0.12141,3.29541 -0.43072,6.56079 -0.80072,9.8164c-0.17228,1.62976 -0.39787,3.2511 -0.61085,4.87439c-0.20968,1.6239 -0.47867,3.23828 -0.71509,4.85779a0.98116,0.98116 0 0 1 -1.11255,0.8291l-0.09845,-0.01941l-0.01587,-0.00415c-3.42058,-0.86816 -6.8273,-1.79053 -10.209,-2.811c-1.69259,-0.50342 -3.3766,-1.04041 -5.05689,-1.592c-1.67479,-0.57324 -3.35192,-1.13718 -5.00468,-1.79663z" fill="#b59fcc"/>
   <path id="svg_43" class="color9fc6cc svgShape" d="m252.83119,366.41461c-4.05163,-0.0116 -8.09672,-0.12549 -12.14261,-0.22717c-4.04475,-0.11914 -8.08612,-0.29139 -12.12717,-0.46875q-12.11989,-0.58264 -24.22273,-1.43225l-0.00726,-0.00061a0.96771,0.96771 0 0 1 -0.71985,-1.526c1.64518,-2.31384 3.34115,-4.59155 5.01212,-6.887c1.66654,-2.2987 3.38612,-4.55957 5.07657,-6.84131c1.71733,-2.26245 3.4127,-4.54065 5.16852,-6.77575c1.75149,-2.23829 3.47378,-4.49732 5.26987,-6.70386c-1.49363,2.42151 -3.06106,4.79065 -4.59929,7.18042c-1.5339,2.39294 -3.12824,4.74292 -4.70064,7.10852c-1.59926,2.34643 -3.1694,4.71362 -4.79258,7.04309c-1.61875,2.33252 -3.21249,4.683 -4.857,6.99719l-0.727,-1.52637q12.1134,0.68445 24.20808,1.66175c4.03075,0.33838 8.06119,0.68188 12.08822,1.07837c4.02587,0.41397 8.05256,0.81582 12.07275,1.31973z" fill="#b59fcc"/>
   <path id="svg_44" class="color9fc6cc svgShape" d="m238.92628,347.92682a36.16435,36.16435 0 0 0 -5.78154,5.88134a14.52208,14.52208 0 0 0 -3.0868,7.08912a10.01,10.01 0 0 0 0.30765,3.77978a13.7163,13.7163 0 0 0 1.5149,3.61182a35.60761,35.60761 0 0 0 5.09855,6.46679a20.25478,20.25478 0 0 1 -6.40727,-5.61657a12.22052,12.22052 0 0 1 -2.50172,-8.45044a13.96415,13.96415 0 0 1 3.88476,-7.88111a20.51472,20.51472 0 0 1 6.97147,-4.88073zm-17.58445,16.47607a46.84482,46.84482 0 0 1 -0.90911,-6.02649c-0.19024,-2.01123 -0.31187,-4.024 -0.35424,-6.03857c-0.04927,-2.01441 -0.01363,-4.03064 0.08736,-6.04822a46.32941,46.32941 0 0 1 0.64822,-6.06055a46.326,46.326 0 0 1 0.91211,6.02649c0.189,2.01123 0.31256,4.024 0.35124,6.03858c0.0456,2.01452 0.01192,4.03064 -0.09035,6.04834a46.84562,46.84562 0 0 1 -0.64523,6.06042z" fill="#b59fcc"/>
  </svg>
 </g>
</svg>