<svg xmlns="http://www.w3.org/2000/svg" width="103.25381073365259" height="66.03045682330367" style=""><rect id="backgroundrect" width="100%" height="100%" x="0" y="0" fill="none" stroke="none"/>
  
<g class="currentLayer" style=""><title>Layer 1</title><g class="b selected" style="clip-path: url(#a);" id="svg_1">
    <g stroke-width="0" id="svg_2">
      <g stroke-width="0" id="svg_3">
        <g stroke-width="0" id="svg_4">
          <path class="d" d="M95.00525025988031,44.87662767478287 H30.979940421880315 a1.9060773480000006,1.9060773480000006 0 0 0 0,3.8121546960000003 H95.00525025988031 a1.9060773480000006,1.9060773480000006 0 0 0 0,-3.8121546960000003 z" style="fill: rgb(125, 64, 231);" stroke-width="0" id="svg_5"/>
          <path class="d" d="M99.83340714588033,34.024007098782874 H40.63339221588032 a1.8345278980000006,1.8345278980000006 0 0 0 0,3.6661938180000013 H99.83340714588033 a1.8345278980000006,1.8345278980000006 0 0 0 0,-3.6661938180000013 z" style="fill: rgb(125, 64, 231);" stroke-width="0" id="svg_6"/>
          <path class="d" d="M88.14508899388034,23.280141686782855 H24.11977915588031 a1.9060773480000006,1.9060773480000006 0 0 0 0,3.809292718 H88.14508899388034 a1.9060773480000006,1.9060773480000006 0 0 0 0,-3.809292718 z" style="fill: rgb(125, 64, 231);" stroke-width="0" id="svg_7"/>
          <path class="d" d="M28.690358021880314,65.83775454678286 a16.788362948,16.788362948 0 0 1 -16.768329102,-16.768329102 a8.763376636,8.763376636 0 0 1 0.12306505400000008,-1.430989 a16.77119108,16.77119108 0 0 1 5.466377980000001,-32.6265492 c0.5323279080000001,0 1.0675177940000002,0.02289582400000002 1.5969837240000002,0.07441142800000002 A16.407719874,16.407719874 0 0 1 35.55051928788032,1.1742236147828464 a16.819844706,16.819844706 0 0 1 16.427753720000002,13.391195062000001 a2.1607933900000003,2.1607933900000003 0 1 1 -4.23572744,0.8585934000000004 a12.478224080000002,12.478224080000002 0 0 0 -12.194888258,-9.933925638 a12.143372654000002,12.143372654000002 0 0 0 -12.3065054,12.226370016 a2.1607933900000003,2.1607933900000003 0 0 1 -2.9621472300000002,2.0033846000000004 l-0.4264347220000002,-0.16885670200000008 A12.452466278000001,12.452466278000001 0 0 0 15.093100543880325,44.006586362782855 a2.1579314120000004,2.1579314120000004 0 0 1 1.5712259220000004,2.967871186 l-0.18316659200000004,0.4292967000000002 c-0.02289582400000002,0.12878901000000004 -0.04865362600000005,0.2547160420000001 -0.07441142800000002,0.380643074 a6.7113384100000015,6.7113384100000015 0 0 0 -0.16885670200000008,1.2821661440000003 a12.452466278000001,12.452466278000001 0 0 0 23.969065750000002,4.730849634 a2.1607933900000003,2.1607933900000003 0 1 1 4.0067692,1.642775372000001 A16.705365586,16.705365586 0 0 1 28.690358021880314,65.83775454678286 z" style="fill: rgb(125, 64, 231);" stroke-width="0" id="svg_8"/>
        </g>
      </g>
    </g>
  </g></g></svg>